<svg width="40" height="41" viewBox="0 0 40 41" fill="none" xmlns="http://www.w3.org/2000/svg">
<path d="M20 28C18.7051 27.998 17.4327 27.6608 16.3068 27.0212C15.1809 26.3815 14.2397 25.4613 13.575 24.35L11.4375 25.6C12.3274 27.0751 13.5833 28.2953 15.0835 29.1423C16.5837 29.9893 18.2772 30.4344 20 30.4344C21.7228 30.4344 23.4163 29.9893 24.9165 29.1423C26.4167 28.2953 27.6726 27.0751 28.5625 25.6L26.425 24.35C25.7603 25.4613 24.8191 26.3815 23.6932 27.0212C22.5673 27.6608 21.2949 27.998 20 28ZM37.5 5.5H32.5V0.5H30V5.5H25V8H30V13H32.5V8H37.5V5.5ZM14.375 14.25C13.7569 14.25 13.1527 14.4333 12.6388 14.7767C12.1249 15.12 11.7244 15.6081 11.4879 16.1791C11.2514 16.7501 11.1895 17.3785 11.31 17.9847C11.4306 18.5908 11.7283 19.1477 12.1653 19.5847C12.6023 20.0217 13.1592 20.3194 13.7653 20.44C14.3715 20.5605 14.9999 20.4986 15.5709 20.2621C16.1419 20.0256 16.63 19.6251 16.9733 19.1112C17.3167 18.5973 17.5 17.9931 17.5 17.375C17.5033 16.9637 17.4248 16.5558 17.2689 16.1752C17.113 15.7945 16.883 15.4487 16.5921 15.1579C16.3013 14.867 15.9555 14.637 15.5748 14.4811C15.1942 14.3252 14.7863 14.2467 14.375 14.25ZM25.625 14.25C25.0069 14.25 24.4027 14.4333 23.8888 14.7767C23.3749 15.12 22.9744 15.6081 22.7379 16.1791C22.5014 16.7501 22.4395 17.3785 22.56 17.9847C22.6806 18.5908 22.9783 19.1477 23.4153 19.5847C23.8523 20.0217 24.4092 20.3194 25.0153 20.44C25.6215 20.5605 26.2499 20.4986 26.8209 20.2621C27.3919 20.0256 27.88 19.6251 28.2233 19.1112C28.5667 18.5973 28.75 17.9931 28.75 17.375C28.7533 16.9637 28.6748 16.5558 28.5189 16.1752C28.363 15.7945 28.133 15.4487 27.8421 15.1579C27.5513 14.867 27.2055 14.637 26.8248 14.4811C26.4442 14.3252 26.0363 14.2467 25.625 14.25Z" fill="#8E8E93"/>
<path d="M34.5126 16.75C34.8284 17.9753 34.9922 19.2347 35.0001 20.5C35.0001 23.4667 34.1204 26.3668 32.4722 28.8336C30.824 31.3003 28.4813 33.2229 25.7404 34.3582C22.9995 35.4935 19.9835 35.7906 17.0738 35.2118C14.1641 34.633 11.4913 33.2044 9.39353 31.1066C7.29574 29.0088 5.86713 26.3361 5.28836 23.4264C4.70958 20.5166 5.00663 17.5006 6.14194 14.7597C7.27726 12.0189 9.19984 9.67618 11.6666 8.02796C14.1333 6.37974 17.0334 5.5 20.0001 5.5V3C16.3776 2.99876 12.844 4.12173 9.88674 6.21398C6.92951 8.30623 4.69444 11.2646 3.48991 14.681C2.28537 18.0974 2.17074 21.8035 3.16182 25.2878C4.15289 28.7721 6.20084 31.863 9.0231 34.134C11.8454 36.405 15.3028 37.7443 18.9185 37.9669C22.5342 38.1896 26.1299 37.2847 29.2095 35.3771C32.289 33.4695 34.7007 30.6532 36.1118 27.3169C37.5229 23.9805 37.8639 20.2884 37.0876 16.75H34.5126Z" fill="#8E8E93"/>
</svg>
