<svg width="40" height="40" viewBox="0 0 40 40" fill="none" xmlns="http://www.w3.org/2000/svg">
<path d="M20 2.5C16.5388 2.5 13.1554 3.52636 10.2775 5.44928C7.39967 7.37221 5.15665 10.1053 3.83212 13.303C2.50758 16.5007 2.16102 20.0194 2.83627 23.4141C3.51151 26.8087 5.17822 29.9269 7.62564 32.3744C10.0731 34.8218 13.1913 36.4885 16.5859 37.1637C19.9806 37.839 23.4993 37.4924 26.697 36.1679C29.8947 34.8434 32.6278 32.6003 34.5507 29.7225C36.4737 26.8446 37.5 23.4612 37.5 20C37.5 15.3587 35.6563 10.9075 32.3744 7.62563C29.0925 4.34374 24.6413 2.5 20 2.5ZM20 35C17.0333 35 14.1332 34.1203 11.6665 32.472C9.19972 30.8238 7.27713 28.4811 6.14181 25.7403C5.0065 22.9994 4.70945 19.9834 5.28823 17.0736C5.86701 14.1639 7.29562 11.4912 9.39341 9.3934C11.4912 7.29561 14.1639 5.867 17.0737 5.28822C19.9834 4.70944 22.9994 5.00649 25.7403 6.14181C28.4811 7.27712 30.8238 9.19971 32.472 11.6664C34.1203 14.1332 35 17.0333 35 20C35 23.9782 33.4197 27.7936 30.6066 30.6066C27.7936 33.4196 23.9783 35 20 35Z" fill="#8E8E93"/>
<path d="M30.5123 13.7498L28.7498 11.9873L26.2498 14.4873L23.7498 11.9873L21.9873 13.7498L24.4873 16.2498L21.9873 18.7498L23.7498 20.5123L26.2498 18.0123L28.7498 20.5123L30.5123 18.7498L28.0123 16.2498L30.5123 13.7498ZM18.0123 13.7498L16.2498 11.9873L13.7498 14.4873L11.2498 11.9873L9.4873 13.7498L11.9873 16.2498L9.4873 18.7498L11.2498 20.5123L13.7498 18.0123L16.2498 20.5123L18.0123 18.7498L15.5123 16.2498L18.0123 13.7498ZM19.9998 23.7498C19.2581 23.7498 18.5331 23.9697 17.9164 24.3818C17.2997 24.7938 16.8191 25.3795 16.5353 26.0647C16.2514 26.75 16.1772 27.504 16.3219 28.2314C16.4666 28.9588 16.8237 29.627 17.3482 30.1515C17.8726 30.6759 18.5408 31.0331 19.2682 31.1777C19.9956 31.3224 20.7496 31.2482 21.4349 30.9644C22.1201 30.6805 22.7058 30.1999 23.1178 29.5832C23.5299 28.9665 23.7498 28.2415 23.7498 27.4998C23.7498 26.5052 23.3547 25.5514 22.6515 24.8482C21.9482 24.1449 20.9944 23.7498 19.9998 23.7498Z" fill="#8E8E93"/>
</svg>
