<svg width="18" height="19" viewBox="0 0 18 19" fill="none" xmlns="http://www.w3.org/2000/svg">
<path d="M6.75 4.24988C6.55109 4.24988 6.36032 4.3289 6.21967 4.46955C6.07902 4.61021 6 4.80097 6 4.99988C6 5.1988 6.07902 5.38956 6.21967 5.53021C6.36032 5.67087 6.55109 5.74988 6.75 5.74988C6.94891 5.74988 7.13968 5.67087 7.28033 5.53021C7.42098 5.38956 7.5 5.1988 7.5 4.99988C7.5 4.80097 7.42098 4.61021 7.28033 4.46955C7.13968 4.3289 6.94891 4.24988 6.75 4.24988ZM4.6275 4.24988C4.78245 3.81074 5.0698 3.43046 5.44995 3.16148C5.8301 2.89249 6.28432 2.74805 6.75 2.74805C7.21569 2.74805 7.6699 2.89249 8.05005 3.16148C8.4302 3.43046 8.71755 3.81074 8.8725 4.24988H14.25C14.4489 4.24988 14.6397 4.3289 14.7803 4.46955C14.921 4.61021 15 4.80097 15 4.99988C15 5.1988 14.921 5.38956 14.7803 5.53021C14.6397 5.67087 14.4489 5.74988 14.25 5.74988H8.8725C8.71755 6.18903 8.4302 6.56931 8.05005 6.83829C7.6699 7.10728 7.21569 7.25172 6.75 7.25172C6.28432 7.25172 5.8301 7.10728 5.44995 6.83829C5.0698 6.56931 4.78245 6.18903 4.6275 5.74988H3.75C3.55109 5.74988 3.36032 5.67087 3.21967 5.53021C3.07902 5.38956 3 5.1988 3 4.99988C3 4.80097 3.07902 4.61021 3.21967 4.46955C3.36032 4.3289 3.55109 4.24988 3.75 4.24988H4.6275ZM11.25 8.74989C11.0511 8.74989 10.8603 8.8289 10.7197 8.96955C10.579 9.11021 10.5 9.30097 10.5 9.49989C10.5 9.6988 10.579 9.88956 10.7197 10.0302C10.8603 10.1709 11.0511 10.2499 11.25 10.2499C11.4489 10.2499 11.6397 10.1709 11.7803 10.0302C11.921 9.88956 12 9.6988 12 9.49989C12 9.30097 11.921 9.11021 11.7803 8.96955C11.6397 8.8289 11.4489 8.74989 11.25 8.74989ZM9.1275 8.74989C9.28245 8.31074 9.5698 7.93046 9.94995 7.66148C10.3301 7.39249 10.7843 7.24805 11.25 7.24805C11.7157 7.24805 12.1699 7.39249 12.5501 7.66148C12.9302 7.93046 13.2175 8.31074 13.3725 8.74989H14.25C14.4489 8.74989 14.6397 8.8289 14.7803 8.96955C14.921 9.11021 15 9.30097 15 9.49989C15 9.6988 14.921 9.88956 14.7803 10.0302C14.6397 10.1709 14.4489 10.2499 14.25 10.2499H13.3725C13.2175 10.689 12.9302 11.0693 12.5501 11.3383C12.1699 11.6073 11.7157 11.7517 11.25 11.7517C10.7843 11.7517 10.3301 11.6073 9.94995 11.3383C9.5698 11.0693 9.28245 10.689 9.1275 10.2499H3.75C3.55109 10.2499 3.36032 10.1709 3.21967 10.0302C3.07902 9.88956 3 9.6988 3 9.49989C3 9.30097 3.07902 9.11021 3.21967 8.96955C3.36032 8.8289 3.55109 8.74989 3.75 8.74989H9.1275ZM6.75 13.2499C6.55109 13.2499 6.36032 13.3289 6.21967 13.4696C6.07902 13.6102 6 13.801 6 13.9999C6 14.1988 6.07902 14.3896 6.21967 14.5302C6.36032 14.6709 6.55109 14.7499 6.75 14.7499C6.94891 14.7499 7.13968 14.6709 7.28033 14.5302C7.42098 14.3896 7.5 14.1988 7.5 13.9999C7.5 13.801 7.42098 13.6102 7.28033 13.4696C7.13968 13.3289 6.94891 13.2499 6.75 13.2499ZM4.6275 13.2499C4.78245 12.8107 5.0698 12.4305 5.44995 12.1615C5.8301 11.8925 6.28432 11.748 6.75 11.748C7.21569 11.748 7.6699 11.8925 8.05005 12.1615C8.4302 12.4305 8.71755 12.8107 8.8725 13.2499H14.25C14.4489 13.2499 14.6397 13.3289 14.7803 13.4696C14.921 13.6102 15 13.801 15 13.9999C15 14.1988 14.921 14.3896 14.7803 14.5302C14.6397 14.6709 14.4489 14.7499 14.25 14.7499H8.8725C8.71755 15.189 8.4302 15.5693 8.05005 15.8383C7.6699 16.1073 7.21569 16.2517 6.75 16.2517C6.28432 16.2517 5.8301 16.1073 5.44995 15.8383C5.0698 15.5693 4.78245 15.189 4.6275 14.7499H3.75C3.55109 14.7499 3.36032 14.6709 3.21967 14.5302C3.07902 14.3896 3 14.1988 3 13.9999C3 13.801 3.07902 13.6102 3.21967 13.4696C3.36032 13.3289 3.55109 13.2499 3.75 13.2499H4.6275Z" fill="#8E8E93"/>
</svg>
