<svg width="22" height="22" viewBox="0 0 22 22" fill="none" xmlns="http://www.w3.org/2000/svg">
<rect width="22" height="22" rx="6" fill="#F4F4F4"/>
<path d="M10.4167 5.16667H9.25008C6.33341 5.16667 5.16675 6.33334 5.16675 9.25001V12.75C5.16675 15.6667 6.33341 16.8333 9.25008 16.8333H12.7501C15.6667 16.8333 16.8334 15.6667 16.8334 12.75V11.5833" stroke="#40A627" stroke-linecap="round" stroke-linejoin="round"/>
<path d="M13.3566 5.76166L8.75993 10.3583C8.58493 10.5333 8.40993 10.8775 8.37493 11.1283L8.1241 12.8842C8.03076 13.52 8.47993 13.9633 9.11576 13.8758L10.8716 13.625C11.1166 13.59 11.4608 13.415 11.6416 13.24L16.2383 8.64333C17.0316 7.84999 17.4049 6.92833 16.2383 5.76166C15.0716 4.59499 14.1499 4.96833 13.3566 5.76166Z" stroke="#40A627" stroke-miterlimit="10" stroke-linecap="round" stroke-linejoin="round"/>
<path d="M12.6975 6.42084C13.0883 7.815 14.1792 8.90584 15.5792 9.3025" stroke="#40A627" stroke-miterlimit="10" stroke-linecap="round" stroke-linejoin="round"/>
</svg>
