<svg width="14" height="14" viewBox="0 0 14 14" fill="none" xmlns="http://www.w3.org/2000/svg">
<path d="M12.25 3.48832C10.3075 3.29582 8.35333 3.19666 6.405 3.19666C5.25 3.19666 4.095 3.25499 2.94 3.37166L1.75 3.48832" stroke="#363639" stroke-linecap="round" stroke-linejoin="round"/>
<path d="M4.95825 2.89919L5.08659 2.13502C5.17992 1.58085 5.24992 1.16669 6.23575 1.16669H7.76409C8.74992 1.16669 8.82575 1.60419 8.91325 2.14085L9.04159 2.89919" stroke="#363639" stroke-linecap="round" stroke-linejoin="round"/>
<path d="M10.9958 5.33167L10.6167 11.2058C10.5525 12.1217 10.5 12.8333 8.87248 12.8333H5.12748C3.49998 12.8333 3.44748 12.1217 3.38332 11.2058L3.00415 5.33167" stroke="#363639" stroke-linecap="round" stroke-linejoin="round"/>
<path d="M6.02588 9.625H7.96838" stroke="#363639" stroke-linecap="round" stroke-linejoin="round"/>
<path d="M5.54175 7.29169H8.45841" stroke="#363639" stroke-linecap="round" stroke-linejoin="round"/>
</svg>
