<svg width="14" height="14" viewBox="0 0 14 14" fill="none" xmlns="http://www.w3.org/2000/svg">
<path d="M6.99992 7.00002C8.61075 7.00002 9.91659 5.69418 9.91659 4.08335C9.91659 2.47252 8.61075 1.16669 6.99992 1.16669C5.38909 1.16669 4.08325 2.47252 4.08325 4.08335C4.08325 5.69418 5.38909 7.00002 6.99992 7.00002Z" stroke="#363639" stroke-linecap="round" stroke-linejoin="round"/>
<path d="M11.2058 9.18168L9.14076 11.2467C9.0591 11.3284 8.98327 11.48 8.96577 11.5908L8.85494 12.3783C8.8141 12.6642 9.01244 12.8625 9.29828 12.8217L10.0858 12.7108C10.1966 12.6933 10.3541 12.6175 10.4299 12.5358L12.4949 10.4709C12.8508 10.115 13.0199 9.70084 12.4949 9.17584C11.9758 8.65667 11.5616 8.82584 11.2058 9.18168Z" stroke="#363639" stroke-miterlimit="10" stroke-linecap="round" stroke-linejoin="round"/>
<path d="M10.9082 9.47919C11.0832 10.1092 11.5732 10.5992 12.2032 10.7742" stroke="#363639" stroke-miterlimit="10" stroke-linecap="round" stroke-linejoin="round"/>
<path d="M1.98926 12.8333C1.98926 10.5758 4.23511 8.75 7.00011 8.75C7.60677 8.75 8.19009 8.8375 8.73259 9.00083" stroke="#363639" stroke-linecap="round" stroke-linejoin="round"/>
</svg>
