<svg width="22" height="22" viewBox="0 0 22 22" fill="none" xmlns="http://www.w3.org/2000/svg">
<rect width="22" height="22" rx="6" fill="#298B1B"/>
<path d="M6.91667 9.83331C6.275 9.83331 5.75 10.3583 5.75 11C5.75 11.6416 6.275 12.1666 6.91667 12.1666C7.55833 12.1666 8.08333 11.6416 8.08333 11C8.08333 10.3583 7.55833 9.83331 6.91667 9.83331Z" stroke="#FEFEFE"/>
<path d="M15.0834 9.83331C14.4417 9.83331 13.9167 10.3583 13.9167 11C13.9167 11.6416 14.4417 12.1666 15.0834 12.1666C15.7251 12.1666 16.2501 11.6416 16.2501 11C16.2501 10.3583 15.7251 9.83331 15.0834 9.83331Z" stroke="#FEFEFE"/>
<path d="M10.9999 9.83331C10.3583 9.83331 9.83325 10.3583 9.83325 11C9.83325 11.6416 10.3583 12.1666 10.9999 12.1666C11.6416 12.1666 12.1666 11.6416 12.1666 11C12.1666 10.3583 11.6416 9.83331 10.9999 9.83331Z" stroke="#FEFEFE"/>
</svg>
