<svg width="22" height="22" viewBox="0 0 22 22" fill="none" xmlns="http://www.w3.org/2000/svg">
<rect width="22" height="22" rx="6" fill="#FF3A51"/>
<path d="M16.25 7.48832C14.3075 7.29582 12.3533 7.19666 10.405 7.19666C9.25 7.19666 8.095 7.25499 6.94 7.37166L5.75 7.48832" stroke="white" stroke-linecap="round" stroke-linejoin="round"/>
<path d="M8.95825 6.89916L9.08659 6.13499C9.17992 5.58082 9.24992 5.16666 10.2358 5.16666H11.7641C12.7499 5.16666 12.8258 5.60416 12.9133 6.14082L13.0416 6.89916" stroke="white" stroke-linecap="round" stroke-linejoin="round"/>
<path d="M14.9958 9.33167L14.6167 15.2058C14.5525 16.1217 14.5 16.8333 12.8725 16.8333H9.12748C7.49998 16.8333 7.44748 16.1217 7.38332 15.2058L7.00415 9.33167" stroke="white" stroke-linecap="round" stroke-linejoin="round"/>
<path d="M10.0259 13.625H11.9684" stroke="white" stroke-linecap="round" stroke-linejoin="round"/>
<path d="M9.54175 11.2917H12.4584" stroke="white" stroke-linecap="round" stroke-linejoin="round"/>
</svg>
