<svg width="12" height="12" viewBox="0 0 12 12" fill="none" xmlns="http://www.w3.org/2000/svg">
<path d="M6 0.75C3.92977 0.75 2.25 2.26195 2.25 4.125C2.25 7.125 6 11.25 6 11.25C6 11.25 9.75 7.125 9.75 4.125C9.75 2.26195 8.07023 0.75 6 0.75ZM6 6C5.70333 6 5.41332 5.91203 5.16664 5.7472C4.91997 5.58238 4.72771 5.34811 4.61418 5.07403C4.50065 4.79994 4.47094 4.49834 4.52882 4.20736C4.5867 3.91639 4.72956 3.64912 4.93934 3.43934C5.14912 3.22956 5.41639 3.0867 5.70736 3.02882C5.99834 2.97094 6.29994 3.00065 6.57402 3.11418C6.84811 3.22771 7.08238 3.41997 7.2472 3.66664C7.41203 3.91332 7.5 4.20333 7.5 4.5C7.49957 4.89769 7.34139 5.27897 7.06018 5.56018C6.77897 5.84139 6.39769 5.99957 6 6Z" fill="#AEAEB2"/>
</svg>
