<svg width="16" height="17" viewBox="0 0 16 17" fill="none" xmlns="http://www.w3.org/2000/svg">
<path d="M0.666992 1.16699V7.83366H15.3337V1.16699H0.666992ZM8.66699 5.16699H2.66699V3.83366H8.66699V5.16699ZM10.667 5.16699C10.5351 5.16699 10.4062 5.12789 10.2966 5.05464C10.187 4.98138 10.1015 4.87726 10.0511 4.75545C10.0006 4.63363 9.98741 4.49959 10.0131 4.37027C10.0389 4.24094 10.1024 4.12216 10.1956 4.02892C10.2888 3.93569 10.4076 3.87219 10.5369 3.84647C10.6663 3.82074 10.8003 3.83395 10.9221 3.88441C11.0439 3.93486 11.1481 4.02031 11.2213 4.12995C11.2946 4.23958 11.3337 4.36847 11.3337 4.50033C11.3337 4.67714 11.2634 4.84671 11.1384 4.97173C11.0134 5.09675 10.8438 5.16699 10.667 5.16699ZM12.667 5.16699C12.5351 5.16699 12.4062 5.12789 12.2966 5.05464C12.187 4.98138 12.1015 4.87726 12.0511 4.75545C12.0006 4.63363 11.9874 4.49959 12.0131 4.37027C12.0389 4.24094 12.1024 4.12216 12.1956 4.02892C12.2888 3.93569 12.4076 3.87219 12.5369 3.84647C12.6663 3.82074 12.8003 3.83395 12.9221 3.88441C13.0439 3.93486 13.1481 4.02031 13.2213 4.12995C13.2946 4.23958 13.3337 4.36847 13.3337 4.50033C13.3337 4.67714 13.2634 4.84671 13.1384 4.97173C13.0134 5.09675 12.8438 5.16699 12.667 5.16699ZM15.127 12.747L15.887 12.0803L15.2203 10.927L14.2537 11.2537C14.0396 11.0733 13.796 10.9312 13.5337 10.8337L13.3337 9.83366H12.0003L11.8003 10.827C11.5379 10.9245 11.2944 11.0666 11.0803 11.247L10.1137 10.9203L9.44699 12.0737L10.207 12.7403C10.1537 13.0178 10.1537 13.3029 10.207 13.5803L9.44699 14.247L10.1137 15.4003L11.0803 15.0737C11.2943 15.2541 11.5379 15.3962 11.8003 15.4937L12.0003 16.5003H13.3337L13.5337 15.507C13.7961 15.4095 14.0396 15.2674 14.2537 15.087L15.2203 15.4137L15.887 14.2603L15.127 13.5937C15.1803 13.314 15.1803 13.0267 15.127 12.747ZM12.667 14.5003C12.4033 14.5003 12.1455 14.4221 11.9262 14.2756C11.707 14.1291 11.5361 13.9209 11.4352 13.6772C11.3342 13.4336 11.3078 13.1655 11.3593 12.9069C11.4107 12.6482 11.5377 12.4107 11.7242 12.2242C11.9107 12.0377 12.1482 11.9107 12.4069 11.8593C12.6655 11.8078 12.9336 11.8342 13.1772 11.9352C13.4209 12.0361 13.6291 12.207 13.7756 12.4262C13.9221 12.6455 14.0003 12.9033 14.0003 13.167C13.9993 13.5203 13.8585 13.8588 13.6086 14.1086C13.3588 14.3585 13.0203 14.4993 12.667 14.5003Z" fill="#8BDA64"/>
<path d="M8.00033 13.167H2.66699V11.8337H8.19633C8.53133 10.7169 9.27182 9.76569 10.2723 9.16699H0.666992V15.8337H8.84033C8.29289 15.0522 7.99958 14.1211 8.00033 13.167Z" fill="#8BDA64"/>
</svg>
