<svg width="21" height="21" viewBox="0 0 21 21" fill="none" xmlns="http://www.w3.org/2000/svg">
<path d="M14 18.375L13.7375 17.0625C13.5625 16.9896 13.3983 16.9129 13.2449 16.8324C13.0915 16.7519 12.9348 16.6536 12.775 16.5375L11.5062 16.9313L10.6312 15.4437L11.6375 14.5687C11.6083 14.3646 11.5937 14.175 11.5937 14C11.5937 13.825 11.6083 13.6354 11.6375 13.4313L10.6312 12.5563L11.5062 11.0687L12.775 11.4625C12.9354 11.3458 13.0923 11.2475 13.2457 11.1676C13.3992 11.0877 13.5631 11.011 13.7375 10.9375L14 9.625H15.75L16.0125 10.9375C16.1875 11.0104 16.3517 11.0906 16.5051 11.1781C16.6585 11.2656 16.8152 11.375 16.975 11.5062L18.2437 11.0687L19.1187 12.6L18.1125 13.475C18.1417 13.65 18.1562 13.8323 18.1562 14.0219C18.1562 14.2115 18.1417 14.3937 18.1125 14.5687L19.1187 15.4437L18.2437 16.9313L16.975 16.5375C16.8146 16.6542 16.658 16.7528 16.5051 16.8333C16.3523 16.9138 16.1881 16.9902 16.0125 17.0625L15.75 18.375H14ZM1.75 17.5V15.05C1.75 14.5688 1.87396 14.1167 2.12187 13.6937C2.36979 13.2708 2.7125 12.95 3.15 12.7313C3.89375 12.3521 4.73229 12.0312 5.66562 11.7687C6.59896 11.5062 7.62708 11.375 8.75 11.375H9.05625C9.14375 11.375 9.23125 11.3896 9.31875 11.4188C8.89583 12.4688 8.72083 13.5115 8.79375 14.5469C8.86667 15.5823 9.21667 16.5667 9.84375 17.5H1.75ZM14.875 15.75C15.3562 15.75 15.7684 15.5785 16.1114 15.2355C16.4544 14.8925 16.6256 14.4807 16.625 14C16.625 13.5187 16.4535 13.1066 16.1105 12.7636C15.7675 12.4206 15.3557 12.2494 14.875 12.25C14.3937 12.25 13.9816 12.4215 13.6386 12.7645C13.2956 13.1075 13.1244 13.5193 13.125 14C13.125 14.4813 13.2965 14.8934 13.6395 15.2364C13.9825 15.5794 14.3943 15.7506 14.875 15.75ZM8.75 10.5C7.7875 10.5 6.96354 10.1573 6.27812 9.47187C5.59271 8.78646 5.25 7.9625 5.25 7C5.25 6.0375 5.59271 5.21354 6.27812 4.52813C6.96354 3.84271 7.7875 3.5 8.75 3.5C9.7125 3.5 10.5365 3.84271 11.2219 4.52813C11.9073 5.21354 12.25 6.0375 12.25 7C12.25 7.9625 11.9073 8.78646 11.2219 9.47187C10.5365 10.1573 9.7125 10.5 8.75 10.5Z" fill="#8BDA64"/>
</svg>
