<svg width="21" height="21" viewBox="0 0 21 21" fill="none" xmlns="http://www.w3.org/2000/svg">
<path d="M14 14.875V16.625H1.75V14.875C1.75 14.875 1.75 11.375 7.875 11.375C14 11.375 14 14.875 14 14.875ZM10.9375 6.56255C10.9375 5.95684 10.7579 5.36474 10.4214 4.86111C10.0849 4.35749 9.60657 3.96496 9.04697 3.73317C8.48737 3.50137 7.8716 3.44072 7.27754 3.55889C6.68347 3.67706 6.13778 3.96873 5.70949 4.39703C5.28119 4.82533 4.98951 5.37102 4.87135 5.96508C4.75318 6.55915 4.81383 7.17491 5.04562 7.73451C5.27741 8.29411 5.66994 8.77241 6.17357 9.10892C6.67719 9.44543 7.26929 9.62505 7.875 9.62505C8.68723 9.62505 9.46618 9.30239 10.0405 8.72806C10.6148 8.15373 10.9375 7.37477 10.9375 6.56255ZM13.9475 11.375C14.4854 11.7913 14.9256 12.3204 15.237 12.9251C15.5484 13.5298 15.7235 14.1954 15.75 14.875V16.625H19.25V14.875C19.25 14.875 19.25 11.6988 13.9475 11.375ZM13.125 3.50005C12.5227 3.49669 11.9337 3.67676 11.4362 4.0163C11.9678 4.75894 12.2535 5.6493 12.2535 6.56255C12.2535 7.4758 11.9678 8.36615 11.4362 9.1088C11.9337 9.44833 12.5227 9.6284 13.125 9.62505C13.9372 9.62505 14.7162 9.30239 15.2905 8.72806C15.8648 8.15373 16.1875 7.37477 16.1875 6.56255C16.1875 5.75032 15.8648 4.97136 15.2905 4.39703C14.7162 3.8227 13.9372 3.50005 13.125 3.50005Z" fill="#8BDA64"/>
</svg>
