<svg width="21" height="21" viewBox="0 0 21 21" fill="none" xmlns="http://www.w3.org/2000/svg">
<path d="M14 1.75H7C3.5 1.75 1.75 3.5 1.75 7V18.375C1.75 18.8563 2.14375 19.25 2.625 19.25H14C17.5 19.25 19.25 17.5 19.25 14V7C19.25 3.5 17.5 1.75 14 1.75Z" stroke="#8BDA64" stroke-linecap="round" stroke-linejoin="round"/>
<path d="M11.2967 6.86038L6.75543 11.4016C6.58043 11.5766 6.41418 11.9179 6.37918 12.1629L6.13418 13.8954C6.04668 14.5254 6.48418 14.9629 7.11418 14.8754L8.84666 14.6304C9.09166 14.5954 9.43294 14.4291 9.60794 14.2541L14.1492 9.71288C14.9279 8.93413 15.3042 8.02413 14.1492 6.86913C12.9942 5.70538 12.0842 6.07288 11.2967 6.86038Z" stroke="#8BDA64" stroke-miterlimit="10" stroke-linecap="round" stroke-linejoin="round"/>
<path d="M10.6494 7.50781C11.0344 8.88156 12.1107 9.96656 13.4932 10.3516" stroke="#8BDA64" stroke-miterlimit="10" stroke-linecap="round" stroke-linejoin="round"/>
</svg>
