<svg width="20" height="20" viewBox="0 0 20 20" fill="none" xmlns="http://www.w3.org/2000/svg">
<path d="M10 1.25C5.16797 1.25 1.25 5.16797 1.25 10C1.25 14.832 5.16797 18.75 10 18.75C14.832 18.75 18.75 14.832 18.75 10C18.75 5.16797 14.832 1.25 10 1.25ZM10 17.2656C5.98828 17.2656 2.73438 14.0117 2.73438 10C2.73438 5.98828 5.98828 2.73438 10 2.73438C14.0117 2.73438 17.2656 5.98828 17.2656 10C17.2656 14.0117 14.0117 17.2656 10 17.2656Z" fill="#FEFEFE"/>
<path d="M10 2.73438C5.98828 2.73438 2.73438 5.98828 2.73438 10C2.73438 14.0117 5.98828 17.2656 10 17.2656C14.0117 17.2656 17.2656 14.0117 17.2656 10C17.2656 5.98828 14.0117 2.73438 10 2.73438ZM13.75 10.4688C13.75 10.5547 13.6797 10.625 13.5938 10.625H10.625V13.5938C10.625 13.6797 10.5547 13.75 10.4688 13.75H9.53125C9.44531 13.75 9.375 13.6797 9.375 13.5938V10.625H6.40625C6.32031 10.625 6.25 10.5547 6.25 10.4688V9.53125C6.25 9.44531 6.32031 9.375 6.40625 9.375H9.375V6.40625C9.375 6.32031 9.44531 6.25 9.53125 6.25H10.4688C10.5547 6.25 10.625 6.32031 10.625 6.40625V9.375H13.5938C13.6797 9.375 13.75 9.44531 13.75 9.53125V10.4688Z" fill="#C6C6C6"/>
<path d="M13.5938 9.375H10.625V6.40625C10.625 6.32031 10.5547 6.25 10.4688 6.25H9.53125C9.44531 6.25 9.375 6.32031 9.375 6.40625V9.375H6.40625C6.32031 9.375 6.25 9.44531 6.25 9.53125V10.4688C6.25 10.5547 6.32031 10.625 6.40625 10.625H9.375V13.5938C9.375 13.6797 9.44531 13.75 9.53125 13.75H10.4688C10.5547 13.75 10.625 13.6797 10.625 13.5938V10.625H13.5938C13.6797 10.625 13.75 10.5547 13.75 10.4688V9.53125C13.75 9.44531 13.6797 9.375 13.5938 9.375Z" fill="#FEFEFE"/>
</svg>
