<svg width="21" height="21" viewBox="0 0 21 21" fill="none" xmlns="http://www.w3.org/2000/svg">
<path d="M13.125 12.25C10.7887 12.25 6.125 13.4137 6.125 15.75V17.5H20.125V15.75C20.125 13.4137 15.4613 12.25 13.125 12.25ZM5.25 8.75V6.125H3.5V8.75H0.875V10.5H3.5V13.125H5.25V10.5H7.875V8.75M13.125 10.5C14.0533 10.5 14.9435 10.1313 15.5999 9.47487C16.2563 8.8185 16.625 7.92826 16.625 7C16.625 6.07174 16.2563 5.1815 15.5999 4.52513C14.9435 3.86875 14.0533 3.5 13.125 3.5C12.1967 3.5 11.3065 3.86875 10.6501 4.52513C9.99375 5.1815 9.625 6.07174 9.625 7C9.625 7.92826 9.99375 8.8185 10.6501 9.47487C11.3065 10.1313 12.1967 10.5 13.125 10.5Z" fill="#8BDA64"/>
</svg>
